<?xml version="1.0" encoding="utf-8"?>
<!-- Generator: Adobe Illustrator 16.0.0, SVG Export Plug-In . SVG Version: 6.00 Build 0)  -->
<!DOCTYPE svg PUBLIC "-//W3C//DTD SVG 1.1//EN" "http://www.w3.org/Graphics/SVG/1.1/DTD/svg11.dtd">
<svg version="1.1" id="Layer_1" xmlns="http://www.w3.org/2000/svg" xmlns:xlink="http://www.w3.org/1999/xlink" x="0px" y="0px"
	 width="32px" height="28px" viewBox="0 0 32 28" enable-background="new 0 0 32 28" xml:space="preserve">
<title>bed</title>
<path fill="#2196F3" d="M4,16h27c0.547,0,1,0.453,1,1v7h-4v-4H4v4H0V5c0-0.547,0.453-1,1-1h2c0.547,0,1,0.453,1,1V16z M13,11
	c0-2.203-1.797-4-4-4s-4,1.797-4,4s1.797,4,4,4S13,13.203,13,11z M32,15v-1c0-3.313-2.688-6-6-6H15c-0.547,0-1,0.453-1,1v6H32z"/>
</svg>
