<?xml version="1.0" encoding="utf-8"?>
<!-- Generator: Adobe Illustrator 16.0.0, SVG Export Plug-In . SVG Version: 6.00 Build 0)  -->
<!DOCTYPE svg PUBLIC "-//W3C//DTD SVG 1.1//EN" "http://www.w3.org/Graphics/SVG/1.1/DTD/svg11.dtd">
<svg version="1.1" id="Layer_1" xmlns="http://www.w3.org/2000/svg" xmlns:xlink="http://www.w3.org/1999/xlink" x="0px" y="0px"
	 width="28px" height="28px" viewBox="0 0 28 28" enable-background="new 0 0 28 28" xml:space="preserve">
<title>birthday-cake</title>
<path fill="#2196F3" d="M28,22v6H0v-6c1.531,0,2.344-0.688,2.984-1.234C3.515,20.297,3.875,20,4.671,20s1.141,0.297,1.687,0.766
	C6.999,21.313,7.795,22,9.342,22c1.531,0,2.328-0.688,2.984-1.234C12.857,20.297,13.201,20,13.998,20s1.156,0.297,1.688,0.766
	C16.326,21.313,17.139,22,18.669,22c1.531,0,2.345-0.688,2.983-1.234C22.184,20.297,22.544,20,23.34,20
	c0.781,0,1.141,0.297,1.672,0.766C25.652,21.313,26.465,22,27.996,22H28z M28,17v3c-0.797,0-1.141-0.297-1.688-0.766
	C25.672,18.688,24.876,18,23.344,18c-1.547,0-2.344,0.688-2.984,1.234C19.813,19.703,19.469,20,18.673,20s-1.155-0.297-1.687-0.766
	C16.346,18.688,15.549,18,14.002,18c-1.531,0-2.328,0.688-2.984,1.234C10.487,19.703,10.143,20,9.346,20
	c-0.797,0-1.156-0.297-1.687-0.766C7.018,18.688,6.206,18,4.675,18c-1.547,0-2.344,0.688-2.984,1.234C1.16,19.703,0.8,20,0.004,20
	v-3c0-1.656,1.344-3,3-3h1V7h4v7h4V7h4v7h4V7h4v7h1c1.656,0,3,1.344,3,3H28z M8,3.5C8,5.156,7.109,6,6,6S4,5.109,4,4
	c0-1.937,2-1.437,2-4C6.75,0,8,1.844,8,3.5z M16,3.5C16,5.156,15.109,6,14,6c-1.109,0-2-0.891-2-2c0-1.937,2-1.437,2-4
	C14.75,0,16,1.844,16,3.5z M24,3.5C24,5.156,23.109,6,22,6s-2-0.891-2-2c0-1.937,2-1.437,2-4C22.75,0,24,1.844,24,3.5z"/>
</svg>
