<?xml version="1.0" encoding="utf-8"?>
<!-- Generator: Adobe Illustrator 16.0.0, SVG Export Plug-In . SVG Version: 6.00 Build 0)  -->
<!DOCTYPE svg PUBLIC "-//W3C//DTD SVG 1.1//EN" "http://www.w3.org/Graphics/SVG/1.1/DTD/svg11.dtd">
<svg version="1.1" id="Layer_1" xmlns="http://www.w3.org/2000/svg" xmlns:xlink="http://www.w3.org/1999/xlink" x="0px" y="0px"
	 width="22px" height="28px" viewBox="0 0 22 28" enable-background="new 0 0 22 28" xml:space="preserve">
<title>blind</title>
<path fill="#2196F3" d="M5.719,4.859c-1.344,0-2.438-1.094-2.438-2.438c0-1.328,1.094-2.422,2.438-2.422
	c1.344,0,2.422,1.094,2.422,2.422C8.141,3.765,7.063,4.859,5.719,4.859z M14.328,14.891c0,1.688-1.797,1.313-2.203,0.625
	L6.391,8.672c-0.25-0.406-0.438-0.219-0.438-0.219S5.844,8.578,6.016,8.781l1.906,2.172l0.016,5.531
	c-1.344,3.906-2.516,7.141-2.516,7.141c-0.734,2.094-1.344,3.906-1.875,4.156c-0.641,0.328-1.109,0.25-1.609,0.016
	c-0.656-0.297-0.844-1.094-0.797-1.563c0,0,0.031-0.25,3.078-9.656l0.078-6.5L2.969,12.64l0.547,3.469
	c0.203,1.313-0.906,1.484-0.906,1.484c-1.062,0.172-1.281-1.063-1.281-1.095L0.61,11.827c3.281-5.922,3.297-5.953,3.297-5.953l0,0
	c0.25-0.375,0.812-0.531,1.766-0.531c0.844,0,1.375,0.25,1.672,0.625l0,0l6.625,8.141c0.094,0.063,0.155,0.156,0.219,0.266
	l0.047,0.047l-0.016,0.016C14.298,14.579,14.329,14.734,14.328,14.891L14.328,14.891z M8.031,17.234c1.5,3.984,2.844,7,2.844,7
	c0.453,1.156,1.234,2.812,0.094,3.469c-1.125,0.656-2.031-0.109-2.281-0.641l0,0H8.672c-0.047-0.125-0.094-0.25-0.125-0.392
	L6.61,21.188L8.031,17.234z M20.906,26.484c0.328,0.516,0.609,0.891,0.438,1c-0.297,0.187-0.391-0.359-0.719-0.891
	c0,0-1.766-2.673-6.609-10.328c0.094,0.03,0.267-0.109,0.267-0.109s0.172-0.141,0.172-0.266
	C19.268,23.749,20.907,26.484,20.906,26.484L20.906,26.484z"/>
</svg>
