<?xml version="1.0" encoding="utf-8"?>
<!-- Generator: Adobe Illustrator 16.0.0, SVG Export Plug-In . SVG Version: 6.00 Build 0)  -->
<!DOCTYPE svg PUBLIC "-//W3C//DTD SVG 1.1//EN" "http://www.w3.org/Graphics/SVG/1.1/DTD/svg11.dtd">
<svg version="1.1" id="Layer_1" xmlns="http://www.w3.org/2000/svg" xmlns:xlink="http://www.w3.org/1999/xlink" x="0px" y="0px"
	 width="30px" height="28px" viewBox="0 0 30 28" enable-background="new 0 0 30 28" xml:space="preserve">
<title>credit-card</title>
<path fill="#2196F3" d="M27.5,2C28.875,2,30,3.125,30,4.5v19c0,1.375-1.125,2.5-2.5,2.5h-25C1.125,26,0,24.875,0,23.5v-19
	C0,3.125,1.125,2,2.5,2H27.5z M2.5,4C2.234,4,2,4.234,2,4.5V8h26V4.5C28,4.234,27.766,4,27.5,4H2.5z M27.5,24
	c0.266,0,0.5-0.234,0.5-0.5V14H2v9.5C2,23.766,2.234,24,2.5,24H27.5z M4,22v-2h4v2H4z M10,22v-2h6v2H10z"/>
</svg>
