<?xml version="1.0" encoding="utf-8"?>
<!-- Generator: Adobe Illustrator 16.0.0, SVG Export Plug-In . SVG Version: 6.00 Build 0)  -->
<!DOCTYPE svg PUBLIC "-//W3C//DTD SVG 1.1//EN" "http://www.w3.org/Graphics/SVG/1.1/DTD/svg11.dtd">
<svg version="1.1" id="Layer_1" xmlns="http://www.w3.org/2000/svg" xmlns:xlink="http://www.w3.org/1999/xlink" x="0px" y="0px"
	 width="22px" height="28px" viewBox="0 0 22 28" enable-background="new 0 0 22 28" xml:space="preserve">
<title>cutlery</title>
<path fill="#2196F3" d="M10,1v10c0,1.266-0.812,2.406-2,2.828V26c0,1.094-0.906,2-2,2H4c-1.094,0-2-0.906-2-2V13.828
	C0.812,13.406,0,12.265,0,11V1c0-0.547,0.453-1,1-1s1,0.453,1,1v6.5c0,0.547,0.453,1,1,1s1-0.453,1-1V1c0-0.547,0.453-1,1-1
	s1,0.453,1,1v6.5c0,0.547,0.453,1,1,1s1-0.453,1-1V1c0-0.547,0.453-1,1-1S10,0.453,10,1z M22,1v25c0,1.094-0.906,2-2,2h-2
	c-1.094,0-2-0.906-2-2v-8h-3.5c-0.266,0-0.5-0.234-0.5-0.5V5c0-2.75,2.25-5,5-5h4C21.547,0,22,0.453,22,1z"/>
</svg>
