<?xml version="1.0" encoding="utf-8"?>
<!-- Generator: Adobe Illustrator 16.0.0, SVG Export Plug-In . SVG Version: 6.00 Build 0)  -->
<!DOCTYPE svg PUBLIC "-//W3C//DTD SVG 1.1//EN" "http://www.w3.org/Graphics/SVG/1.1/DTD/svg11.dtd">
<svg version="1.1" id="Layer_1" xmlns="http://www.w3.org/2000/svg" xmlns:xlink="http://www.w3.org/1999/xlink" x="0px" y="0px"
	 width="22px" height="28px" viewBox="0 0 22 28" enable-background="new 0 0 22 28" xml:space="preserve">
<title>fire-extinguisher</title>
<path fill="#2196F3" d="M8,3c0-0.547-0.453-1-1-1S6,2.453,6,3s0.453,1,1,1S8,3.547,8,3z M22,2.5v5c0,0.156-0.063,0.297-0.188,0.391
	C21.719,7.969,21.609,8,21.5,8c-0.031,0-0.063,0-0.109-0.016l-7-1.5C14.172,6.437,14,6.234,14,6h-4v1.594
	c2.281,0.469,4,2.484,4,4.906V25c0,0.547-0.453,1-1,1H5c-0.547,0-1-0.453-1-1V12.5c0-2.234,1.469-4.141,3.5-4.766V6H7
	C3.687,6,1.906,9.422,1.891,9.453C1.719,9.797,1.36,10,1,10c-0.156,0-0.313-0.031-0.453-0.109c-0.484-0.25-0.688-0.844-0.438-1.344
	C0.187,8.391,1.75,5.36,4.89,4.344C4.656,3.953,4.499,3.5,4.499,3c0-1.375,1.125-2.5,2.5-2.5s2.5,1.125,2.5,2.5
	c0,0.359-0.078,0.688-0.219,1h4.719c0-0.234,0.172-0.438,0.392-0.484l7-1.5C21.438,2,21.468,2,21.499,2
	c0.108,0,0.219,0.031,0.313,0.109C21.938,2.203,21.999,2.343,22,2.5L22,2.5z"/>
</svg>
