<svg xmlns="http://www.w3.org/2000/svg" viewBox="0 0 92.781 38.043">
  <g fill="#ffcc07">
    <path fill-rule="evenodd" d="M65.448 20.907c.817.804 1.577 1.647 2.454 2.374 2.288 1.9 4.893 2.805 7.853 2.282 2.831-.5 5.034-1.932 5.944-4.813 1.324-4.194-1.571-8.48-5.937-8.78-2.105-.145-3.763.733-4.805 2.615-.71 1.284-.351 2.539.901 3.313.387.24.8.421 1.239.537.404.104.691.034.661-.475-.007-.107.027-.223.005-.324-.42-1.804 1.704-3.009 3.178-2.665 1.397.328 2.363 1.154 2.797 2.522.393 1.244-.021 2.317-.889 3.226-1.312 1.377-2.997 1.875-4.834 2.001-4.905.336-7.651-4.827-6.592-8.563.633-2.239 2.26-3.562 4.315-4.4 4.733-1.933 10.86.53 12.78 5.179 1.863 4.506.245 9.402-4.528 11.995-5.734 3.114-11.275.017-13.33-3.311-.524-.847-.881-1.769-1.212-2.713z" clip-rule="evenodd"/>
    <path d="M59.382 15.642c.66.178 1.221.327 1.699.438.481.11.868.194 1.167.236.474.066.948.099 1.42.088.473 0 .938-.044 1.397-.121l.382 1.498c-.222.074-.45.153-.687.219-.239.056-.481.115-.733.162-.639.123-1.323.197-2.053.212-.733.017-1.509-.014-2.333-.104l-.259-2.628zM61.332 28.039c.536-.424.992-.786 1.386-1.076.399-.292.721-.523.978-.681.409-.249.831-.465 1.269-.643.434-.187.879-.331 1.33-.443l-.242-1.527c-.233.02-.474.039-.716.071-.241.042-.488.084-.739.142-.634.14-1.292.344-1.969.619-.679.275-1.379.611-2.101 1.019l.804 2.519zM76.565 1.196c-.123.671-.227 1.244-.296 1.728-.07.491-.122.882-.141 1.184-.027.477-.02.952.029 1.421.04.471.121.931.235 1.382l-1.461.505c-.092-.214-.189-.436-.274-.666-.078-.233-.154-.472-.223-.718-.174-.625-.305-1.301-.381-2.029-.075-.729-.108-1.504-.087-2.334l2.599-.473zM92.3 19.389c-.662-.163-1.229-.303-1.707-.403-.483-.1-.872-.175-1.172-.212-.475-.057-.949-.08-1.422-.059-.471.011-.936.063-1.392.15l-.413-1.489c.219-.081.446-.162.681-.233.238-.062.48-.124.732-.179.634-.134 1.316-.224 2.046-.254.733-.032 1.509-.018 2.336.056l.311 2.623zM87.991 29.563c-.338-.485-.628-.899-.882-1.235-.258-.337-.468-.605-.644-.797-.276-.298-.572-.568-.891-.802-.313-.241-.647-.445-.992-.617l.577-1.433c.188.052.383.105.578.172.189.076.383.153.577.243.489.226.983.517 1.476.881.496.363.992.787 1.489 1.286l-1.288 2.302zM89.059 6.917c-.583.355-1.082.66-1.488.928-.413.272-.739.495-.979.682-.374.296-.723.617-1.042.966-.326.343-.617.711-.876 1.096l-1.349-.757c.099-.211.2-.431.315-.649.124-.21.25-.427.389-.644.351-.545.769-1.091 1.262-1.631.494-.542 1.052-1.083 1.686-1.618l2.082 1.627zM62.428 7.813c.656.188 1.217.347 1.683.499.469.153.842.279 1.125.397.439.187.861.403 1.26.654.405.243.783.52 1.137.822l1.097-1.088c-.151-.179-.307-.363-.476-.541-.174-.171-.354-.347-.545-.518-.484-.432-1.033-.848-1.651-1.237-.623-.39-1.304-.763-2.058-1.11l-1.572 2.122z"/>
  </g>
  <path fill="#fff" fill-rule="evenodd" d="M38.556 20.079c.162.158.312.323.484.465.45.375.964.551 1.545.449.56-.099.993-.379 1.172-.945.261-.822-.311-1.664-1.169-1.722-.415-.028-.741.144-.947.514-.139.25-.068.498.179.65.076.047.156.083.243.105.08.021.137.006.13-.093-.001-.022.007-.045.001-.064-.082-.353.337-.589.626-.523.275.064.464.226.551.494.077.244-.005.455-.176.633-.257.271-.589.369-.951.393-.967.067-1.508-.947-1.299-1.68.126-.438.446-.698.851-.862.932-.378 2.139.104 2.517 1.016.367.884.047 1.845-.892 2.353-1.13.611-2.221.004-2.625-.649-.104-.169-.174-.349-.24-.534zM79.246 37.776c-2.979-.015-5.555-.452-7.808-1.108-4.106-1.198-8.478-1.232-13.115-.522-2.597.399-5.036.921-7.657 1.3-1.961.283-3.958.515-6.072.58-3.71.114-6.917-.365-9.895-1.118-1.416-.358-2.69-.779-4.032-1.173-4.25-1.242-8.831-1.317-13.68-.532-3.4.553-6.481 1.308-9.696 1.981-1.461.303-2.894.636-4.55.797-.456.045-.98.127-1.31-.042-.317-.162.013-.332.265-.478.952-.544 2.237-.986 3.569-1.398 3.785-1.17 7.974-2.097 12.691-2.687 2.257-.282 4.585-.46 6.958-.464 3.644-.004 6.922.405 9.704 1.298 1.832.589 3.772 1.128 6.14 1.401 2.871.332 5.611.111 8.297-.303 2.812-.435 5.447-1.006 8.326-1.39 3.906-.518 7.816-.688 11.758-.047 1.981.322 3.521.87 5.237 1.331 1.581.423 3.178.831 5.24.892 1.545.044 2.913-.131 4.233-.39 1.758-.344 3.342-.783 4.939-1.212.839-.225 1.716-.423 2.748-.514.327-.029.663-.078.911.032.253.111.163.25.011.369-.35.277-.845.525-1.396.75-1.885.765-3.809 1.519-6.261 2.055-1.71.374-3.53.61-5.555.592z" clip-rule="evenodd"/>
  <path fill="#fff" d="M71.712 17.452c-.419 1.591-.774 2.946-1.053 4.104-.278 1.172-.495 2.113-.635 2.853-.216 1.172-.388 2.359-.496 3.564-.124 1.201-.186 2.405-.201 3.607l-2.168.248c-.047-.603-.094-1.22-.125-1.852-.015-.632-.031-1.28-.031-1.942 0-1.681.078-3.455.248-5.321.171-1.866.417-3.825.759-5.877l3.702.616zM77.913 28.42c.016-.68.033-1.095.033-1.266 0-.555-.093-.971-.279-1.25-.187-.293-.45-.431-.821-.431-.356 0-.711.153-1.084.463-.387.323-.774.786-1.191 1.402l-.264 4.674-1.642.23-.976-8.296 3.113-.65-.14 2.607c.449-.601.929-1.049 1.424-1.357.513-.292 1.023-.446 1.582-.446.727 0 1.315.261 1.78.8.465.541.806 1.358 1.022 2.454l.837 4.225-3.501.617c.062-1.848.093-3.098.107-3.776zM87.593 28.42c.016-.68.016-1.095.016-1.266 0-.555-.078-.971-.264-1.25-.186-.293-.465-.431-.819-.431-.358 0-.714.153-1.085.463-.387.323-.775.786-1.193 1.402l-.263 4.674-1.644.23-.974-8.296 3.114-.65-.14 2.607c.451-.601.914-1.049 1.425-1.357.496-.292 1.022-.446 1.58-.446.728 0 1.316.261 1.782.8.465.541.803 1.358 1.021 2.454l.836 4.225-3.5.617c.046-1.848.078-3.098.108-3.776zM5.566 31.26l.655-11.576c1.996 8.911 4.567 11.937 7.71 4.932.607 3.009 1.585 6.051 4.113 7.835l.325-.712c-3.355-3.284-2.61-5.233-4.845-15.525l-4.14 8.27-3.705-8.009-1.778.073-1.316 14.25 2.981.462zM26.448 27.369c-.161-.755-.38-1.452-.7-2.118-.394-.843-.889-1.481-1.457-1.901-.583-.421-1.253-.625-2.011-.625-.947 0-1.762.174-2.477.552-.7.363-1.297.915-1.777 1.655l.465.435c.308-.393.671-.696 1.079-.885.394-.204.844-.305 1.34-.305.467 0 .846.087 1.137.276.305.188.509.465.642.827-1.546.435-2.711.973-3.483 1.567-.772.61-1.165 1.306-1.165 2.074 0 .437.087.813.276 1.148.189.318.465.595.831.796.306.189.641.32 1.035.407.393.087.814.132 1.282.132.845 0 1.689-.089 2.549-.291.875-.188 1.734-.494 2.623-.886l.014-.464c.014-.843-.058-1.641-.203-2.394zm-3.162 2.365c0 .203-.016.391-.016.609-.203.101-.466.188-.8.247-.321.043-.714.074-1.181.074-.466 0-1.196-3.324-.875-3.513.321-.189.7-.376 1.138-.552.424-.174.903-.334 1.442-.492.103.492.175 1 .218 1.494.058.508.074 1.017.074 1.539v.594zM33.348 16.321l.348 7.467c-.272-.277-.608-.487-1.003-.627-.396-.142-.86-.214-1.395-.214-.563 0-1.088.088-1.572.261-.483.172-.921.432-1.314.778-.415.362-.726.775-.934 1.237-.208.461-.312.973-.312 1.534 0 1.037.361 1.927 1.084 2.668.723.743 1.602 1.115 2.638 1.115.638 0 1.215-.139 1.729-.416.516-.279.969-.692 1.361-1.242l.086 2.13 1.524.131 1.226-15.601-3.466.779zm.281 11.451c-.131.355-.327.682-.589.983-.279.318-.585.553-.922.709-.335.156-.706.235-1.109.235-.194 0-.389-.023-.589-.064-.2-.042-.398-.105-.598-.191.018-.029 1.056-5.318.999-5.612h.163c.951 0 1.66.23 2.134.689.473.459.709 1.164.709 2.108-.001.41-.068.789-.198 1.143zM48.294 16.321l.349 7.467c-.272-.277-.606-.487-1.003-.627-.396-.142-.859-.214-1.396-.214-.563 0-1.085.088-1.568.261-.484.172-.923.432-1.316.778-.415.362-.727.775-.935 1.237-.207.461-.312.973-.312 1.534 0 1.037.362 1.927 1.084 2.668.724.743 1.602 1.115 2.638 1.115.639 0 1.213-.139 1.729-.416.515-.279.969-.692 1.362-1.242l.086 2.13 1.523.131 1.225-15.601-3.466.779zm.282 11.451c-.132.355-.328.682-.59.983-.278.318-.586.553-.922.709-.334.156-.705.235-1.109.235-.193 0-.391-.023-.59-.064-.2-.042-.398-.105-.598-.191.016-.029 1.055-5.318 1-5.612h.161c.951 0 1.662.23 2.135.689.473.459.709 1.164.709 2.108 0 .41-.065.789-.196 1.143zM41.212 31.62l-3.599-.465 1.341-8.271h1.602z"/>
  <g fill="#fff">
    <path d="M61.942 23.991c-.059.466-.205.799-.435 1.001-.232.202-.549.278-.956.228-.368-.046-.636-.149-.803-.31-.167-.161-.233-.379-.2-.654.019-.135.069-.252.157-.354.087-.1.209-.181.366-.241l.223.212c-.045.04-.081.08-.11.119-.028.039-.045.077-.048.116-.015.111.01.2.071.261.061.061.158.099.287.115.18.022.319-.004.414-.079.096-.078.155-.208.177-.393.019-.145-.002-.281-.063-.408-.062-.126-.164-.241-.304-.344-.11-.082-.235-.148-.375-.199-.14-.052-.293-.088-.461-.109-.215-.027-.413-.024-.592.007-.179.032-.352.092-.52.18-.178.098-.318.222-.417.375-.1.153-.162.33-.188.532-.024.196.027.398.157.606.127.208.327.422.598.645.489.403.862.711 1.121.919.257.209.393.324.407.341.274.292.464.595.575.908s.143.647.098 1.001c-.06.475-.202.891-.428 1.251-.224.362-.54.66-.94.896-.367.217-.766.368-1.196.451-.432.084-.894.094-1.383.034-.324-.041-.626-.116-.911-.229-.285-.111-.556-.261-.814-.447-.265-.186-.488-.401-.673-.648-.185-.245-.33-.517-.437-.816l.706-.505c.199.513.472.914.82 1.198.349.283.769.456 1.26.515.446.056.827-.029 1.145-.256.317-.227.505-.557.559-.991.035-.28.006-.563-.087-.847-.094-.283-.254-.567-.482-.853-.211-.238-.426-.476-.644-.714-.217-.239-.434-.477-.648-.715-.223-.291-.38-.584-.477-.882-.093-.297-.121-.6-.083-.911.047-.374.173-.703.374-.979.202-.277.475-.508.819-.693.301-.163.629-.267.982-.313.353-.048.731-.046 1.134.003.33.041.63.108.894.201.262.093.492.208.686.346.257.18.438.391.544.632.103.239.137.507.101.797z"/>
    <circle cx="54.672" cy="28.143" r="0.946"/>
  </g>
  <path fill="#fff" d="M56.924 15.296c0 .415-.146.901-.458 1.462-.313.559-.771 1.192-1.384 1.886l-.688-.435c.261-.354.468-.665.645-.934.178-.28.313-.518.407-.726-.385 0-.739-.135-1.04-.394-.292-.269-.447-.601-.447-.996 0-.393.155-.714.457-.984.301-.269.645-.393 1.042-.393.436 0 .799.134 1.071.424.259.282.395.646.395 1.09z"/>
</svg>