<?xml version="1.0" encoding="utf-8"?>
<!-- Generator: Adobe Illustrator 16.0.0, SVG Export Plug-In . SVG Version: 6.00 Build 0)  -->
<!DOCTYPE svg PUBLIC "-//W3C//DTD SVG 1.1//EN" "http://www.w3.org/Graphics/SVG/1.1/DTD/svg11.dtd">
<svg version="1.1" id="Layer_1" xmlns="http://www.w3.org/2000/svg" xmlns:xlink="http://www.w3.org/1999/xlink" x="0px" y="0px"
	 width="26px" height="28px" viewBox="0 0 26 28" enable-background="new 0 0 26 28" xml:space="preserve">
<title>shopping-cart</title>
<path fill="#2196F3" d="M10,24c0,1.094-0.906,2-2,2s-2-0.906-2-2s0.906-2,2-2S10,22.906,10,24z M24,24c0,1.094-0.906,2-2,2
	s-2-0.906-2-2s0.906-2,2-2S24,22.906,24,24z M26,7v8c0,0.5-0.391,0.938-0.891,1L8.797,17.906C8.875,18.266,9,18.625,9,19
	c0,0.359-0.219,0.688-0.375,1H23c0.547,0,1,0.453,1,1s-0.453,1-1,1H7c-0.547,0-1-0.453-1-1c0-0.484,0.703-1.656,0.953-2.141L4.187,6
	H1C0.453,6,0,5.547,0,5s0.453-1,1-1h4c1.047,0,1.078,1.25,1.234,2H25C25.547,6,26,6.453,26,7z"/>
</svg>
