<?xml version="1.0" encoding="utf-8"?>
<!-- Generator: Adobe Illustrator 16.0.0, SVG Export Plug-In . SVG Version: 6.00 Build 0)  -->
<!DOCTYPE svg PUBLIC "-//W3C//DTD SVG 1.1//EN" "http://www.w3.org/Graphics/SVG/1.1/DTD/svg11.dtd">
<svg version="1.1" id="Layer_1" xmlns="http://www.w3.org/2000/svg" xmlns:xlink="http://www.w3.org/1999/xlink" x="0px" y="0px"
	 width="30px" height="28px" viewBox="0 0 30 28" enable-background="new 0 0 30 28" xml:space="preserve">
<title>shower</title>
<path fill="#2196F3" d="M22.391,3.891c0.203,0.203,0.203,0.516,0,0.719l-9.781,9.781c-0.203,0.203-0.516,0.203-0.719,0L10.61,13.11
	c-0.203-0.203-0.203-0.516,0-0.719l0.688-0.688c-1.516-1.906-1.703-4.516-0.547-6.594C10.032,4.421,9.064,4,8.001,4
	c-2.203,0-4,1.797-4,4v20h-4V8c0-4.406,3.594-8,8-8c2.25,0,4.281,0.938,5.734,2.438c1.969-0.797,4.25-0.5,5.969,0.859l0.688-0.688
	c0.203-0.203,0.516-0.203,0.719,0L22.391,3.891z M21,8c0.547,0,1,0.453,1,1s-0.453,1-1,1s-1-0.453-1-1S20.453,8,21,8z M25,10
	c-0.547,0-1-0.453-1-1s0.453-1,1-1s1,0.453,1,1S25.547,10,25,10z M29,8c0.547,0,1,0.453,1,1s-0.453,1-1,1s-1-0.453-1-1
	S28.453,8,29,8z M19,10c0.547,0,1,0.453,1,1s-0.453,1-1,1s-1-0.453-1-1S18.453,10,19,10z M22,11c0-0.547,0.453-1,1-1s1,0.453,1,1
	s-0.453,1-1,1S22,11.547,22,11z M27,10c0.547,0,1,0.453,1,1s-0.453,1-1,1s-1-0.453-1-1S26.453,10,27,10z M17,12c0.547,0,1,0.453,1,1
	s-0.453,1-1,1s-1-0.453-1-1S16.453,12,17,12z M21,14c-0.547,0-1-0.453-1-1s0.453-1,1-1s1,0.453,1,1S21.547,14,21,14z M25,12
	c0.547,0,1,0.453,1,1s-0.453,1-1,1s-1-0.453-1-1S24.453,12,25,12z M19,16c-0.547,0-1-0.453-1-1s0.453-1,1-1s1,0.453,1,1
	S19.547,16,19,16z M23,14c0.547,0,1,0.453,1,1s-0.453,1-1,1s-1-0.453-1-1S22.453,14,23,14z M17,16c0.547,0,1,0.453,1,1s-0.453,1-1,1
	s-1-0.453-1-1S16.453,16,17,16z M21,16c0.547,0,1,0.453,1,1s-0.453,1-1,1s-1-0.453-1-1S20.453,16,21,16z M19,18c0.547,0,1,0.453,1,1
	s-0.453,1-1,1s-1-0.453-1-1S18.453,18,19,18z M17,20c0.547,0,1,0.453,1,1s-0.453,1-1,1s-1-0.453-1-1S16.453,20,17,20z"/>
</svg>
