<?xml version="1.0" encoding="utf-8"?>
<!-- Generator: Adobe Illustrator 16.0.0, SVG Export Plug-In . SVG Version: 6.00 Build 0)  -->
<!DOCTYPE svg PUBLIC "-//W3C//DTD SVG 1.1//EN" "http://www.w3.org/Graphics/SVG/1.1/DTD/svg11.dtd">
<svg version="1.1" id="Layer_1" xmlns="http://www.w3.org/2000/svg" xmlns:xlink="http://www.w3.org/1999/xlink" x="0px" y="0px"
	 width="32px" height="28px" viewBox="0 0 32 28" enable-background="new 0 0 32 28" xml:space="preserve">
<title>wifi</title>
<path fill="#2196F3" d="M16,23.797c-0.406,0-2.594-2.188-2.594-2.609c0-0.766,2-1.188,2.594-1.188c0.594,0,2.594,0.422,2.594,1.188
	C18.594,21.609,16.406,23.797,16,23.797z M20.219,19.563C20,19.563,18.297,18,16,18c-2.312,0-3.984,1.563-4.219,1.563
	c-0.375,0-2.641-2.25-2.641-2.625c0-0.141,0.063-0.266,0.156-0.358c1.672-1.656,4.391-2.578,6.703-2.578
	c2.312,0,5.03,0.922,6.703,2.578c0.094,0.094,0.155,0.219,0.155,0.358c0,0.375-2.266,2.625-2.641,2.625H20.219z M24.484,15.313
	c-0.125,0-0.267-0.063-0.359-0.125c-2.578-2-4.75-3.187-8.125-3.187c-4.719,0-8.313,3.313-8.484,3.313
	c-0.359,0-2.609-2.25-2.609-2.625c0-0.125,0.063-0.25,0.156-0.344c2.797-2.797,7.016-4.344,10.938-4.344s8.142,1.547,10.938,4.344
	c0.094,0.094,0.156,0.219,0.156,0.344c0,0.375-2.25,2.625-2.609,2.625L24.484,15.313z M28.719,11.078
	c-0.125,0-0.25-0.063-0.344-0.141C24.766,7.765,20.875,6,16,6S7.234,7.766,3.625,10.937c-0.094,0.078-0.219,0.141-0.344,0.141
	c-0.359,0-2.625-2.25-2.625-2.625c0-0.141,0.063-0.266,0.156-0.359C4.765,4.172,10.468,2,16,2s11.234,2.172,15.188,6.094
	c0.095,0.094,0.156,0.219,0.156,0.359C31.344,8.828,29.078,11.078,28.719,11.078z"/>
</svg>
